<svg width="159" height="88" viewBox="0 0 159 88" fill="none" xmlns="http://www.w3.org/2000/svg">
<g clip-path="url(#clip0_15424_856)">
<g opacity="0.84">
<path fill-rule="evenodd" clip-rule="evenodd" d="M138.783 14.4072C141.855 14.4072 144.344 16.897 144.344 19.9683C144.344 23.0397 141.855 25.5295 138.783 25.5295H107.006C110.077 25.5295 112.567 28.0192 112.567 31.0906C112.567 34.1619 110.077 36.6517 107.006 36.6517H124.483C127.555 36.6517 130.044 39.1415 130.044 42.2128C130.044 45.2841 127.555 47.7739 124.483 47.7739H116.401C112.528 47.7739 109.389 50.2637 109.389 53.335C109.389 54.5056 109.908 55.6129 110.947 56.6568C112.767 58.4855 115.802 58.5509 117.764 60.2258C118.959 61.2458 119.717 62.763 119.717 64.4572C119.717 67.5286 117.227 70.0183 114.156 70.0183H48.2167C45.1454 70.0183 42.6556 67.5286 42.6556 64.4572C42.6556 61.3859 45.1454 58.8961 48.2167 58.8961H17.2334C14.162 58.8961 11.6722 56.4063 11.6722 53.335C11.6722 50.2637 14.162 47.7739 17.2334 47.7739H49.0111C52.0825 47.7739 54.5722 45.2841 54.5722 42.2128C54.5722 39.1415 52.0825 36.6517 49.0111 36.6517H29.15C26.0787 36.6517 23.5889 34.1619 23.5889 31.0906C23.5889 28.0192 26.0787 25.5295 29.15 25.5295H60.9278C57.8565 25.5295 55.3667 23.0397 55.3667 19.9683C55.3667 16.897 57.8565 14.4072 60.9278 14.4072H138.783ZM138.783 36.6517C141.855 36.6517 144.344 39.1415 144.344 42.2128C144.344 45.2841 141.855 47.7739 138.783 47.7739C135.712 47.7739 133.222 45.2841 133.222 42.2128C133.222 39.1415 135.712 36.6517 138.783 36.6517Z" fill="#D9D8FF" fill-opacity="0.8"/>
<path fill-rule="evenodd" clip-rule="evenodd" d="M97.2116 14.4074L104.601 68.3047L105.265 73.7119C105.479 75.4538 104.24 77.0394 102.498 77.2533L55.9757 82.9655C54.2337 83.1794 52.6482 81.9407 52.4343 80.1987L45.2718 21.8646C45.1648 20.9937 45.7842 20.2009 46.6552 20.094C46.6607 20.0933 46.6662 20.0926 46.6717 20.0919L50.5314 19.6591L97.2116 14.4074ZM53.6524 19.309L57.2965 18.9002Z" fill="white"/>
<path d="M53.6524 19.309L57.2965 18.9002M97.2116 14.4074L104.601 68.3047L105.265 73.7119C105.479 75.4538 104.24 77.0394 102.498 77.2533L55.9757 82.9655C54.2337 83.1794 52.6482 81.9407 52.4343 80.1987L45.2718 21.8646C45.1648 20.9937 45.7842 20.2009 46.6552 20.094C46.6607 20.0933 46.6662 20.0926 46.6717 20.0919L50.5314 19.6591L97.2116 14.4074Z" stroke="#2F6846" stroke-width="2.5"/>
<path fill-rule="evenodd" clip-rule="evenodd" d="M95.2003 17.7986L101.889 66.644L102.491 71.5443C102.685 73.123 101.577 74.558 100.017 74.7495L58.355 79.865C56.795 80.0566 55.3733 78.9321 55.1795 77.3534L48.7047 24.621C48.5978 23.75 49.2172 22.9573 50.0882 22.8503L55.2422 22.2175" fill="#F0F0FF"/>
<path fill-rule="evenodd" clip-rule="evenodd" d="M99.2428 4.27783H63.0504C62.4472 4.27783 61.901 4.52237 61.5056 4.91772C61.1103 5.31308 60.8657 5.85926 60.8657 6.46255V66.8403C60.8657 67.4436 61.1103 67.9898 61.5056 68.3852C61.901 68.7805 62.4472 69.0251 63.0504 69.0251H109.923C110.526 69.0251 111.072 68.7805 111.468 68.3852C111.863 67.9898 112.107 67.4436 112.107 66.8403V17.1359C112.107 16.5562 111.877 16.0003 111.467 15.5905L100.787 4.91724C100.377 4.50782 99.822 4.27783 99.2428 4.27783Z" fill="white" stroke="#2F6846" stroke-width="2.5"/>
<path d="M99.5949 5.19385V14.4072C99.5949 15.7234 100.662 16.7905 101.978 16.7905H108.281" stroke="#2F6846" stroke-width="2.5" stroke-linecap="round" stroke-linejoin="round"/>
<path d="M69.406 57.3072H90.0616M69.406 16.7905H90.0616H69.406ZM69.406 26.3239H103.567H69.406ZM69.406 36.6516H103.567H69.406ZM69.406 46.9794H103.567H69.406Z" stroke="#2F6846" stroke-width="2.5" stroke-linecap="round" stroke-linejoin="round"/>
</g>
</g>
<defs>
<clipPath id="clip0_15424_856">
<rect width="158.4" height="88" fill="white"/>
</clipPath>
</defs>
</svg>
