<svg width="25" height="25" viewBox="0 0 25 25" fill="none" xmlns="http://www.w3.org/2000/svg">
<path d="M8.33331 21.875H20.8333C21.3858 21.875 21.9158 21.6555 22.3065 21.2648C22.6972 20.8741 22.9166 20.3442 22.9166 19.7917V17.7083H10.4166V19.7917C10.4166 20.3442 10.1972 20.8741 9.80645 21.2648C9.41575 21.6555 8.88585 21.875 8.33331 21.875ZM8.33331 21.875C7.78078 21.875 7.25087 21.6555 6.86017 21.2648C6.46947 20.8741 6.24998 20.3442 6.24998 19.7917V5.20833C6.24998 4.6558 6.03049 4.12589 5.63979 3.73519C5.24909 3.34449 4.71918 3.125 4.16665 3.125C3.61411 3.125 3.08421 3.34449 2.69351 3.73519C2.30281 4.12589 2.08331 4.6558 2.08331 5.20833V8.33333H6.24998" stroke="#4945FF" stroke-width="2" stroke-linecap="round" stroke-linejoin="round"/>
<path d="M19.7917 17.7083V5.20833C19.7917 4.6558 19.5722 4.12589 19.1815 3.73519C18.7908 3.34449 18.2609 3.125 17.7084 3.125H4.16669" stroke="#4945FF" stroke-width="2" stroke-linecap="round" stroke-linejoin="round"/>
<path d="M15.625 8.33325H10.4167" stroke="#4945FF" stroke-width="2" stroke-linecap="round" stroke-linejoin="round"/>
<path d="M15.625 12.5H10.4167" stroke="#4945FF" stroke-width="2" stroke-linecap="round" stroke-linejoin="round"/>
</svg>
